<svg width="128" height="32" viewBox="0 0 128 32" fill="none" xmlns="http://www.w3.org/2000/svg">
<g clip-path="url(#clip0_414_2660)">
<path d="M9.24532 24.0007H11.0288V32H4.07995C1.8258 32 0 30.1778 0 27.9311V5.22126C0 4.54751 0.547342 4.00033 1.22425 4.00033H2.78695C3.46253 4.00033 4.0112 3.45315 4.0112 2.7794V1.22093C4.0112 0.547178 4.55986 0 5.23544 0H11.0301V7.99934H9.24664C8.57106 7.99934 8.02239 8.54652 8.02239 9.22027V22.7784C8.02239 23.4522 8.57106 23.9993 9.24664 23.9993L9.24532 24.0007Z" fill="url(#paint0_linear_414_2660)"/>
<path d="M24.0658 4.06889V26.7787C24.0658 27.4525 23.5171 27.9997 22.8415 27.9997H21.2788C20.6019 27.9997 20.0546 28.5468 20.0546 29.2206V30.7791C20.0546 31.4528 19.5059 32 18.8303 32H13.0356V24.0007H14.8191C15.4947 24.0007 16.0434 23.4535 16.0434 22.7797V9.22159C16.0434 8.54784 15.4947 8.00066 14.8191 8.00066H13.0356V0H19.9845C22.2387 0 24.0645 1.82217 24.0645 4.06889H24.0658Z" fill="url(#paint1_linear_414_2660)"/>
<path d="M35.5178 27.7756C34.365 27.6266 33.306 27.3972 32.3369 27.0873V4.29044H37.1876V13.3433H37.4203C37.9624 12.7829 38.6128 12.3531 39.373 12.0538C40.1332 11.7545 40.982 11.6042 41.922 11.6042C43.1714 11.6042 44.2938 11.8863 45.2907 12.452C46.2875 13.0163 47.0821 13.8839 47.6717 15.052C48.2627 16.2202 48.5575 17.6732 48.5575 19.411C48.5575 22.2207 47.7511 24.3554 46.1394 25.8123C44.5278 27.2706 42.1428 27.9997 38.987 27.9997C37.8249 27.9997 36.6681 27.9246 35.5165 27.7756H35.5178ZM42.6703 23.2557C43.3816 22.5174 43.7372 21.3558 43.7372 19.7723C43.7372 18.1888 43.4279 17.1274 42.8078 16.4694C42.1877 15.8128 41.3125 15.4845 40.1795 15.4845C39.6176 15.4845 39.0782 15.5742 38.56 15.7522C38.0417 15.9315 37.5843 16.1939 37.1876 16.5419V24.0877C37.8553 24.271 38.6009 24.3633 39.4246 24.3633C40.8776 24.3633 41.959 23.9941 42.6703 23.2557Z" fill="white"/>
<path d="M50.2881 27.6951V4.29044H55.1388V27.6965H50.2881V27.6951Z" fill="white"/>
<path d="M60.8755 27.0649C59.6261 26.4425 58.6637 25.5156 57.9854 24.2842C57.3072 23.0527 56.9688 21.5535 56.9688 19.7867C56.9688 18.02 57.2979 16.5116 57.9563 15.2893C58.6147 14.0684 59.564 13.1481 60.8028 12.5297C62.0416 11.9113 63.5382 11.6028 65.2899 11.6028C67.0417 11.6028 68.5383 11.9113 69.7771 12.5297C71.0159 13.1481 71.9625 14.0671 72.6169 15.2893C73.27 16.5103 73.5966 18.0094 73.5966 19.7867C73.5966 21.5641 73.2581 23.0382 72.5799 24.2696C71.9017 25.5011 70.9405 26.4307 69.6964 27.0583C68.4524 27.6859 66.9835 27.9997 65.2886 27.9997C63.5937 27.9997 62.1222 27.6885 60.8742 27.0649H60.8755ZM67.8971 23.2491C68.4828 22.5451 68.7763 21.3953 68.7763 19.8026C68.7763 18.2098 68.4828 17.0337 67.8971 16.3336C67.3114 15.6335 66.4428 15.2841 65.2899 15.2841C64.1371 15.2841 63.2658 15.6322 62.6762 16.327C62.0852 17.0219 61.7904 18.1716 61.7904 19.7736C61.7904 21.3755 62.0826 22.5451 62.6696 23.2491C63.2552 23.9545 64.1291 24.3066 65.2913 24.3066C66.4534 24.3066 67.3127 23.9545 67.8984 23.2491H67.8971Z" fill="white"/>
<path d="M75.4277 11.8507H79.4072L79.7271 13.4145H79.9453C80.5746 12.8356 81.3202 12.3887 82.1822 12.0749C83.0442 11.7611 83.9631 11.6042 84.9414 11.6042C86.7712 11.6042 88.2162 12.1355 89.2765 13.1969C90.3369 14.2596 90.867 15.9156 90.867 18.165V27.6951H86.0163V18.4406C86.0163 17.4464 85.8074 16.7384 85.3923 16.3191C84.9758 15.8985 84.3558 15.6889 83.5334 15.6889C82.9239 15.6889 82.325 15.8049 81.7394 16.037C81.1537 16.269 80.6671 16.6118 80.2798 17.0654V27.6964H75.4291V11.8507H75.4277Z" fill="white"/>
<path d="M104.952 27.6951L100.407 21.5101H98.1554V27.6951H93.3047V4.29044H98.1554V17.6152H100.378L104.546 11.8507H109.746L104.373 19.4545L110.27 27.6951H104.955H104.952Z" fill="white"/>
<path d="M112.321 7.15817C112.898 6.14424 113.725 5.36501 114.804 4.81915C115.883 4.27329 117.164 4.00036 118.646 4.00036C119.527 4.00036 120.316 4.07815 121.014 4.23241V7.96904C120.539 7.84379 120.003 7.7805 119.402 7.7805C117.331 7.7805 116.294 8.71663 116.294 10.5902V11.8507H120.694V15.6599H116.294V27.6951H111.458V15.6599H108.713V11.8507H111.458V10.7643C111.458 9.37325 111.746 8.17209 112.323 7.15817H112.321ZM122.786 8.93155C122.291 8.5215 122.045 7.92553 122.045 7.14234C122.045 6.35916 122.292 5.75001 122.786 5.33864C123.279 4.92858 124.024 4.7229 125.023 4.7229C126.021 4.7229 126.765 4.92858 127.26 5.33864C127.754 5.74869 128 6.34993 128 7.14234C128 7.93476 127.753 8.52018 127.26 8.93155C126.765 9.3416 126.019 9.54729 125.023 9.54729C124.026 9.54729 123.28 9.3416 122.786 8.93155ZM122.597 27.6951V11.8494H127.447V27.6951H122.597Z" fill="white"/>
</g>
<defs>
<linearGradient id="paint0_linear_414_2660" x1="-0.224753" y1="30.1501" x2="15.5354" y2="-2.09724" gradientUnits="userSpaceOnUse">
<stop stop-color="#FFF200"/>
<stop offset="1" stop-color="#EC008C"/>
</linearGradient>
<linearGradient id="paint1_linear_414_2660" x1="8.32903" y1="34.3311" x2="24.0892" y2="2.08504" gradientUnits="userSpaceOnUse">
<stop stop-color="#FFF200"/>
<stop offset="1" stop-color="#EC008C"/>
</linearGradient>
<clipPath id="clip0_414_2660">
<rect width="128" height="32" fill="white"/>
</clipPath>
</defs>
</svg>
