<svg width="16" height="16" viewBox="0 0 16 16" fill="none" xmlns="http://www.w3.org/2000/svg">
<g clip-path="url(#clip0_403_1188)">
<path d="M7.99984 3.66666C8.36803 3.66666 8.6665 3.96513 8.6665 4.33332L8.6665 8.99999C8.6665 9.36818 8.36803 9.66666 7.99984 9.66666C7.63165 9.66666 7.33317 9.36818 7.33317 8.99999L7.33317 4.33332C7.33317 3.96513 7.63165 3.66666 7.99984 3.66666Z" fill="#848895"/>
<path d="M7.99984 12.3333C8.55212 12.3333 8.99984 11.8856 8.99984 11.3333C8.99984 10.781 8.55212 10.3333 7.99984 10.3333C7.44755 10.3333 6.99984 10.781 6.99984 11.3333C6.99984 11.8856 7.44755 12.3333 7.99984 12.3333Z" fill="#848895"/>
<path fill-rule="evenodd" clip-rule="evenodd" d="M0.666504 7.99999C0.666504 3.9499 3.94975 0.666656 7.99984 0.666656C12.0499 0.666656 15.3332 3.9499 15.3332 7.99999C15.3332 12.0501 12.0499 15.3333 7.99984 15.3333C3.94975 15.3333 0.666504 12.0501 0.666504 7.99999ZM7.99984 1.99999C4.68613 1.99999 1.99984 4.68628 1.99984 7.99999C1.99984 11.3137 4.68613 14 7.99984 14C11.3135 14 13.9998 11.3137 13.9998 7.99999C13.9998 4.68628 11.3135 1.99999 7.99984 1.99999Z" fill="#848895"/>
</g>
<defs>
<clipPath id="clip0_403_1188">
<rect width="16" height="16" fill="white"/>
</clipPath>
</defs>
</svg>
