<svg width="17" height="16" viewBox="0 0 17 16" fill="none" xmlns="http://www.w3.org/2000/svg">
<g id="Vector">
<path d="M8.5 3.27273C8.90166 3.27273 9.22727 3.59834 9.22727 4L9.22727 9.09091C9.22727 9.49257 8.90166 9.81818 8.5 9.81818C8.09834 9.81818 7.77273 9.49257 7.77273 9.09091L7.77273 4C7.77273 3.59834 8.09834 3.27273 8.5 3.27273Z" fill="white"/>
<path d="M8.5 12.7273C9.10249 12.7273 9.59091 12.2389 9.59091 11.6364C9.59091 11.0339 9.10249 10.5455 8.5 10.5455C7.89751 10.5455 7.40909 11.0339 7.40909 11.6364C7.40909 12.2389 7.89751 12.7273 8.5 12.7273Z" fill="white"/>
<path fill-rule="evenodd" clip-rule="evenodd" d="M0.5 8C0.5 3.58172 4.08172 0 8.5 0C12.9183 0 16.5 3.58172 16.5 8C16.5 12.4183 12.9183 16 8.5 16C4.08172 16 0.5 12.4183 0.5 8ZM8.5 1.45455C4.88505 1.45455 1.95455 4.38505 1.95455 8C1.95455 11.615 4.88505 14.5455 8.5 14.5455C12.115 14.5455 15.0455 11.615 15.0455 8C15.0455 4.38505 12.115 1.45455 8.5 1.45455Z" fill="white"/>
</g>
</svg>
