<svg width="32" height="32" viewBox="0 0 32 32" fill="none" xmlns="http://www.w3.org/2000/svg">
<path fill-rule="evenodd" clip-rule="evenodd" d="M32 16C32 24.8366 24.8366 32 16 32C7.16344 32 0 24.8366 0 16C0 7.16344 7.16344 0 16 0C24.8366 0 32 7.16344 32 16ZM16.5734 11.8119C15.0171 12.4592 11.9068 13.7989 7.24251 15.8311C6.4851 16.1323 6.08833 16.4269 6.05221 16.7151C5.99117 17.202 6.60094 17.3937 7.43128 17.6548C7.54423 17.6903 7.66126 17.7271 7.78124 17.7661C8.59817 18.0317 9.69709 18.3424 10.2684 18.3547C10.7866 18.3659 11.365 18.1523 12.0035 17.7138C16.3615 14.772 18.6112 13.2851 18.7524 13.253C18.852 13.2304 18.9901 13.202 19.0837 13.2851C19.1772 13.3683 19.168 13.5257 19.1581 13.568C19.0977 13.8255 16.7041 16.0508 15.4655 17.2024C15.0793 17.5614 14.8054 17.816 14.7494 17.8742C14.624 18.0044 14.4962 18.1277 14.3733 18.2461C13.6143 18.9778 13.0452 19.5264 14.4048 20.4224C15.0582 20.8529 15.581 21.209 16.1026 21.5642C16.6722 21.9521 17.2404 22.339 17.9755 22.8209C18.1628 22.9436 18.3416 23.0712 18.5158 23.1954C19.1787 23.668 19.7743 24.0925 20.5101 24.0248C20.9376 23.9855 21.3793 23.5835 21.6036 22.3845C22.1336 19.5508 23.1755 13.4113 23.4163 10.8813C23.4374 10.6596 23.4108 10.3759 23.3895 10.2514C23.3682 10.1269 23.3237 9.94946 23.1618 9.81812C22.9701 9.66257 22.6742 9.62977 22.5418 9.6321C21.94 9.6427 21.0167 9.96374 16.5734 11.8119Z" fill="white"/>
</svg>
