<svg width="17" height="16" viewBox="0 0 17 16" fill="none" xmlns="http://www.w3.org/2000/svg">
<g clip-path="url(#clip0_609_11134)">
<path d="M8.3335 4.33341C8.70169 4.33341 9.00016 4.63189 9.00016 5.00008L9.00016 9.00008C9.00016 9.36827 8.70169 9.66675 8.3335 9.66675C7.96531 9.66675 7.66683 9.36827 7.66683 9.00008L7.66683 5.00008C7.66683 4.63189 7.96531 4.33341 8.3335 4.33341Z" fill="#FADB14"/>
<path d="M8.3335 12.3334C8.88578 12.3334 9.3335 11.8857 9.3335 11.3334C9.3335 10.7811 8.88578 10.3334 8.3335 10.3334C7.78121 10.3334 7.3335 10.7811 7.3335 11.3334C7.3335 11.8857 7.78121 12.3334 8.3335 12.3334Z" fill="#FADB14"/>
<path fill-rule="evenodd" clip-rule="evenodd" d="M6.88459 1.4861C7.52936 0.393632 9.1377 0.393632 9.78247 1.4861L16.1068 12.2017C16.772 13.3289 15.9093 14.6667 14.6578 14.6667H2.00925C0.757723 14.6667 -0.104968 13.3289 0.560306 12.2017L6.88459 1.4861ZM8.63421 2.16379C8.50538 1.94551 8.16168 1.94551 8.03285 2.16379L1.70857 12.8794C1.60619 13.0529 1.71351 13.3334 2.00925 13.3334H14.6578C14.9535 13.3334 15.0609 13.0529 14.9585 12.8794L8.63421 2.16379Z" fill="#FADB14"/>
</g>
<defs>
<clipPath id="clip0_609_11134">
<rect width="16" height="16" fill="white" transform="translate(0.333496)"/>
</clipPath>
</defs>
</svg>
