<svg width="16" height="13" viewBox="0 0 16 13" fill="none" xmlns="http://www.w3.org/2000/svg">
<path fill-rule="evenodd" clip-rule="evenodd" d="M7.80805 8.68305C8.05211 8.43898 8.44786 8.43898 8.69192 8.68305L11.375 11.3661L14.058 8.68305C14.3021 8.43898 14.6979 8.43898 14.9419 8.68305C15.186 8.92711 15.186 9.32286 14.9419 9.56692L11.8169 12.6919C11.5729 12.936 11.1771 12.936 10.933 12.6919L7.80805 9.56692C7.56398 9.32286 7.56398 8.92711 7.80805 8.68305Z" fill="white"/>
<path fill-rule="evenodd" clip-rule="evenodd" d="M11.375 4.125C11.7202 4.125 12 4.40481 12 4.75V12.25C12 12.5952 11.7202 12.875 11.375 12.875C11.0298 12.875 10.75 12.5952 10.75 12.25V4.75C10.75 4.40481 11.0298 4.125 11.375 4.125Z" fill="white"/>
<path fill-rule="evenodd" clip-rule="evenodd" d="M0.125 6C0.125 5.65481 0.404825 5.375 0.75 5.375H6.375C6.72019 5.375 7 5.65481 7 6C7 6.34519 6.72019 6.625 6.375 6.625H0.75C0.404825 6.625 0.125 6.34519 0.125 6Z" fill="white"/>
<path fill-rule="evenodd" clip-rule="evenodd" d="M0.125 1C0.125 0.654825 0.404825 0.375 0.75 0.375H11.375C11.7202 0.375 12 0.654825 12 1C12 1.34518 11.7202 1.625 11.375 1.625H0.75C0.404825 1.625 0.125 1.34518 0.125 1Z" fill="white"/>
<path fill-rule="evenodd" clip-rule="evenodd" d="M0.125 11C0.125 10.6548 0.404825 10.375 0.75 10.375H5.125C5.47019 10.375 5.75 10.6548 5.75 11C5.75 11.3452 5.47019 11.625 5.125 11.625H0.75C0.404825 11.625 0.125 11.3452 0.125 11Z" fill="white"/>
</svg>
