<svg width="20" height="20" viewBox="0 0 20 20" fill="none" xmlns="http://www.w3.org/2000/svg">
<path fill-rule="evenodd" clip-rule="evenodd" d="M10.808 12.683C11.0521 12.439 11.4479 12.439 11.6919 12.683L14.375 15.3661L17.058 12.683C17.3021 12.439 17.6979 12.439 17.9419 12.683C18.186 12.9271 18.186 13.3229 17.9419 13.5669L14.8169 16.6919C14.5729 16.936 14.1771 16.936 13.933 16.6919L10.808 13.5669C10.564 13.3229 10.564 12.9271 10.808 12.683Z" fill="white"/>
<path fill-rule="evenodd" clip-rule="evenodd" d="M14.375 8.125C14.7202 8.125 15 8.40481 15 8.75V16.25C15 16.5952 14.7202 16.875 14.375 16.875C14.0298 16.875 13.75 16.5952 13.75 16.25V8.75C13.75 8.40481 14.0298 8.125 14.375 8.125Z" fill="white"/>
<path fill-rule="evenodd" clip-rule="evenodd" d="M3.125 10C3.125 9.65481 3.40483 9.375 3.75 9.375H9.375C9.72019 9.375 10 9.65481 10 10C10 10.3452 9.72019 10.625 9.375 10.625H3.75C3.40483 10.625 3.125 10.3452 3.125 10Z" fill="white"/>
<path fill-rule="evenodd" clip-rule="evenodd" d="M3.125 5C3.125 4.65483 3.40483 4.375 3.75 4.375H14.375C14.7202 4.375 15 4.65483 15 5C15 5.34518 14.7202 5.625 14.375 5.625H3.75C3.40483 5.625 3.125 5.34518 3.125 5Z" fill="white"/>
<path fill-rule="evenodd" clip-rule="evenodd" d="M3.125 15C3.125 14.6548 3.40483 14.375 3.75 14.375H8.125C8.47019 14.375 8.75 14.6548 8.75 15C8.75 15.3452 8.47019 15.625 8.125 15.625H3.75C3.40483 15.625 3.125 15.3452 3.125 15Z" fill="white"/>
</svg>
