<svg width="16" height="16" viewBox="0 0 16 16" fill="none" xmlns="http://www.w3.org/2000/svg">
<path d="M4.05077 6.25512C4.15395 6.50424 4.39704 6.66667 4.66669 6.66667H11.3334C11.603 6.66667 11.8461 6.50424 11.9493 6.25512C12.0525 6.00601 11.9954 5.71926 11.8048 5.5286L8.47142 2.19526C8.21107 1.93491 7.78896 1.93491 7.52861 2.19526L4.19528 5.5286C4.00462 5.71926 3.94758 6.00601 4.05077 6.25512Z" fill="#848895"/>
<path d="M4.05077 9.74488C4.15395 9.49576 4.39704 9.33333 4.66669 9.33333H11.3334C11.603 9.33333 11.8461 9.49576 11.9493 9.74488C12.0525 9.99399 11.9954 10.2807 11.8048 10.4714L8.47142 13.8047C8.21107 14.0651 7.78896 14.0651 7.52861 13.8047L4.19528 10.4714C4.00462 10.2807 3.94758 9.99399 4.05077 9.74488Z" fill="#848895"/>
</svg>
