<svg width="9" height="12" viewBox="0 0 9 12" fill="none" xmlns="http://www.w3.org/2000/svg">
<path d="M0.550766 4.25512C0.653954 4.50424 0.897045 4.66667 1.16669 4.66667H7.83335C8.10299 4.66667 8.34608 4.50424 8.44927 4.25512C8.55246 4.00601 8.49542 3.71926 8.30476 3.5286L4.97142 0.195262C4.71107 -0.0650874 4.28896 -0.0650874 4.02861 0.195262L0.695282 3.5286C0.504616 3.71926 0.447579 4.00601 0.550766 4.25512Z" fill="#848895"/>
<path d="M0.550766 7.74488C0.653954 7.49576 0.897045 7.33333 1.16669 7.33333H7.83335C8.10299 7.33333 8.34608 7.49576 8.44927 7.74488C8.55246 7.99399 8.49542 8.28074 8.30476 8.47141L4.97142 11.8047C4.71107 12.0651 4.28896 12.0651 4.02861 11.8047L0.695282 8.47141C0.504616 8.28074 0.447579 7.99399 0.550766 7.74488Z" fill="#848895"/>
</svg>
