<svg width="24" height="24" viewBox="0 0 24 24" fill="none" xmlns="http://www.w3.org/2000/svg">
<g clip-path="url(#clip0_262_9107)">
<path fill-rule="evenodd" clip-rule="evenodd" d="M8.29308 6.707C8.19757 6.61476 8.12139 6.50441 8.06898 6.38241C8.01657 6.2604 7.98898 6.12918 7.98783 5.9964C7.98668 5.86363 8.01198 5.73195 8.06226 5.60905C8.11254 5.48615 8.18679 5.3745 8.28069 5.28061C8.37458 5.18672 8.48623 5.11246 8.60913 5.06218C8.73202 5.0119 8.8637 4.9866 8.99648 4.98775C9.12926 4.98891 9.26048 5.01649 9.38249 5.0689C9.50449 5.12131 9.61483 5.19749 9.70708 5.293L15.7071 11.293C15.8893 11.4752 15.9942 11.7208 15.9998 11.9785C16.0054 12.2362 15.9113 12.486 15.7371 12.676L10.2371 18.676C10.0578 18.8715 9.8082 18.9877 9.54321 18.9991C9.41201 19.0048 9.28097 18.9846 9.15758 18.9396C9.03419 18.8946 8.92087 18.8258 8.82408 18.737C8.7273 18.6482 8.64895 18.5413 8.5935 18.4222C8.53806 18.3032 8.5066 18.1743 8.50094 18.0431C8.4895 17.7781 8.58379 17.5195 8.76308 17.324L13.6161 12.03L8.29308 6.707Z" fill="#848895"/>
</g>
<defs>
<clipPath id="clip0_262_9107">
<rect width="24" height="24" fill="white" transform="matrix(0 -1 1 0 0 24)"/>
</clipPath>
</defs>
</svg>
