<svg width="14" height="14" viewBox="0 0 14 14" fill="none" xmlns="http://www.w3.org/2000/svg">
<path fill-rule="evenodd" clip-rule="evenodd" d="M6.33331 0.333984H2.99998C1.52731 0.333984 0.333313 1.52798 0.333313 3.00065V11.0007C0.333313 12.4733 1.52731 13.6673 2.99998 13.6673H11C12.4726 13.6673 13.6666 12.4733 13.6666 11.0007C13.6666 9.48665 13.6666 7.66732 13.6666 7.66732C13.6666 7.29932 13.368 7.00065 13 7.00065C12.632 7.00065 12.3333 7.29932 12.3333 7.66732V11.0007C12.3333 11.7367 11.736 12.334 11 12.334C8.77998 12.334 5.21931 12.334 2.99998 12.334C2.26331 12.334 1.66665 11.7367 1.66665 11.0007C1.66665 8.78065 1.66665 5.21998 1.66665 3.00065C1.66665 2.26398 2.26331 1.66732 2.99998 1.66732H6.33331C6.70131 1.66732 6.99998 1.36865 6.99998 1.00065C6.99998 0.632651 6.70131 0.333984 6.33331 0.333984ZM11.3906 1.66732H8.99998C8.63198 1.66732 8.33331 1.36865 8.33331 1.00065C8.33331 0.632651 8.63198 0.333984 8.99998 0.333984H13C13.368 0.333984 13.6666 0.632651 13.6666 1.00065V5.00065C13.6666 5.36865 13.368 5.66732 13 5.66732C12.632 5.66732 12.3333 5.36865 12.3333 5.00065V2.60999L7.47131 7.47198C7.21131 7.73199 6.78865 7.73199 6.52865 7.47198C6.26798 7.21199 6.26798 6.78932 6.52865 6.52932L11.3906 1.66732Z" fill="#A5A5B5"/>
</svg>
