<svg width="17" height="17" viewBox="0 0 17 17" fill="none" xmlns="http://www.w3.org/2000/svg">
<path fill-rule="evenodd" clip-rule="evenodd" d="M5.53355 1.77148H11.4665C13.7401 1.77148 15.5834 3.65647 15.5834 5.98164V6.50731L15.5835 6.51903L15.5834 6.53074V10.2857L15.5835 10.2974L15.5834 10.3091V11.0197C15.5834 13.3448 13.7401 15.2298 11.4665 15.2298H5.53355C3.2599 15.2298 1.41669 13.3448 1.41669 11.0197V5.98164C1.41669 3.65647 3.2599 1.77148 5.53355 1.77148ZM14.5537 5.98164V5.99255H12.2899L12.1602 5.9962C10.9155 6.06572 9.92712 7.11879 9.92712 8.40821C9.92792 9.74241 10.9851 10.823 12.2896 10.8239H14.5537V11.0197C14.5537 12.7633 13.1715 14.1769 11.4665 14.1769H5.53355C3.82854 14.1769 2.4463 12.7633 2.4463 11.0197V5.98164C2.4463 4.238 3.82854 2.82443 5.53355 2.82443H11.4665C13.1715 2.82443 14.5537 4.238 14.5537 5.98164ZM12.2902 7.0455H14.5537V9.77091H12.2899L12.1857 9.76675C11.4983 9.71205 10.9572 9.12478 10.9567 8.40788C10.9567 7.65591 11.5536 7.04596 12.2902 7.0455ZM13.119 8.36496C13.119 8.0742 12.8885 7.83849 12.6042 7.83849H12.3903L12.3204 7.84329C12.0691 7.87815 11.8755 8.09843 11.8755 8.36496C11.8755 8.65572 12.106 8.89143 12.3903 8.89143H12.6042L12.6741 8.88663C12.9254 8.85177 13.119 8.63149 13.119 8.36496ZM9.2655 5.48359C9.2655 5.19283 9.03501 4.95712 8.75069 4.95712H5.04479L4.97493 4.96192C4.72365 4.99678 4.52998 5.21706 4.52998 5.48359C4.52998 5.77435 4.76047 6.01007 5.04479 6.01007H8.75069L8.82054 6.00526C9.07182 5.9704 9.2655 5.75012 9.2655 5.48359Z" fill="#A5A5B5"/>
</svg>
