<svg width="16" height="16" viewBox="0 0 16 16" fill="none" xmlns="http://www.w3.org/2000/svg">
<g clip-path="url(#clip0_341_14792)">
<path d="M8.00008 3.66663C8.36827 3.66663 8.66675 3.9651 8.66675 4.33329L8.66675 8.99996C8.66675 9.36815 8.36827 9.66663 8.00008 9.66663C7.63189 9.66663 7.33342 9.36815 7.33342 8.99996L7.33341 4.33329C7.33341 3.9651 7.63189 3.66663 8.00008 3.66663Z" fill="#848895"/>
<path d="M8.00008 12.3333C8.55237 12.3333 9.00008 11.8856 9.00008 11.3333C9.00008 10.781 8.55237 10.3333 8.00008 10.3333C7.4478 10.3333 7.00008 10.781 7.00008 11.3333C7.00008 11.8856 7.4478 12.3333 8.00008 12.3333Z" fill="#848895"/>
<path fill-rule="evenodd" clip-rule="evenodd" d="M0.666748 7.99996C0.666748 3.94987 3.94999 0.666626 8.00008 0.666626C12.0502 0.666626 15.3334 3.94987 15.3334 7.99996C15.3334 12.05 12.0502 15.3333 8.00008 15.3333C3.94999 15.3333 0.666748 12.05 0.666748 7.99996ZM8.00008 1.99996C4.68637 1.99996 2.00008 4.68625 2.00008 7.99996C2.00008 11.3137 4.68637 14 8.00008 14C11.3138 14 14.0001 11.3137 14.0001 7.99996C14.0001 4.68625 11.3138 1.99996 8.00008 1.99996Z" fill="#848895"/>
</g>
<defs>
<clipPath id="clip0_341_14792">
<rect width="16" height="16" fill="white"/>
</clipPath>
</defs>
</svg>
