<svg width="16" height="16" viewBox="0 0 16 16" fill="none" xmlns="http://www.w3.org/2000/svg">
<g clip-path="url(#clip0_262_8885)">
<path d="M8 4.33332C8.36819 4.33332 8.66667 4.6318 8.66667 4.99999L8.66667 8.99999C8.66667 9.36818 8.36819 9.66666 8 9.66666C7.63181 9.66666 7.33333 9.36818 7.33333 8.99999L7.33333 4.99999C7.33333 4.6318 7.63181 4.33332 8 4.33332Z" fill="#BF8349"/>
<path d="M8 12.3333C8.55229 12.3333 9 11.8856 9 11.3333C9 10.781 8.55229 10.3333 8 10.3333C7.44772 10.3333 7 10.781 7 11.3333C7 11.8856 7.44772 12.3333 8 12.3333Z" fill="#BF8349"/>
<path fill-rule="evenodd" clip-rule="evenodd" d="M6.55109 1.48601C7.19586 0.393541 8.80421 0.39354 9.44897 1.486L15.7733 12.2016C16.4385 13.3288 15.5758 14.6667 14.3243 14.6667H1.67575C0.424227 14.6667 -0.438464 13.3288 0.22681 12.2016L6.55109 1.48601ZM8.30071 2.1637C8.17188 1.94542 7.82818 1.94542 7.69936 2.1637L1.37507 12.8793C1.27269 13.0528 1.38002 13.3333 1.67575 13.3333H14.3243C14.6201 13.3333 14.7274 13.0528 14.625 12.8793L8.30071 2.1637Z" fill="#BF8349"/>
</g>
<defs>
<clipPath id="clip0_262_8885">
<rect width="16" height="16" fill="white"/>
</clipPath>
</defs>
</svg>
