<svg width="24" height="24" viewBox="0 0 24 24" fill="none" xmlns="http://www.w3.org/2000/svg">
<g id="Bold Duotone / Essentional, UI / Close Circle" clip-path="url(#clip0_2_585)">
<path id="Vector" d="M23.9995 11.9999C23.9995 18.6273 18.627 23.9999 11.9996 23.9999C5.37224 23.9999 -0.000305176 18.6273 -0.000305176 11.9999C-0.000305176 5.37255 5.37224 0 11.9996 0C18.627 0 23.9995 5.37255 23.9995 11.9999Z" fill="#989BA3" fill-opacity="0.1"/>
<path id="Vector_2" d="M8.27024 8.27061C8.63072 7.91012 9.21518 7.91012 9.57566 8.27061L11.9999 10.6948L14.424 8.27063C14.7845 7.91015 15.369 7.91015 15.7295 8.27063C16.0899 8.63111 16.0899 9.21557 15.7295 9.57605L13.3053 12.0002L15.7294 14.4244C16.0899 14.7849 16.0899 15.3693 15.7294 15.7298C15.369 16.0903 14.7845 16.0903 14.424 15.7298L11.9999 13.3057L9.57569 15.7298C9.2152 16.0903 8.63075 16.0903 8.27027 15.7298C7.90978 15.3694 7.90978 14.7849 8.27027 14.4244L10.6944 12.0002L8.27024 9.57602C7.90976 9.21554 7.90976 8.63109 8.27024 8.27061Z" fill="#848895"/>
</g>
<defs>
<clipPath id="clip0_2_585">
<rect width="24.0002" height="24" fill="white"/>
</clipPath>
</defs>
</svg>
