<svg width="8" height="4" viewBox="0 0 8 4" fill="none" xmlns="http://www.w3.org/2000/svg">
<path fill-rule="evenodd" clip-rule="evenodd" d="M7.01842 0.152411C7.07108 0.104729 7.13408 0.0666957 7.20374 0.0405312C7.27339 0.0143667 7.34831 0.000594876 7.42411 1.88494e-05C7.49992 -0.000557178 7.5751 0.0120745 7.64526 0.0371765C7.71543 0.0622786 7.77917 0.0993484 7.83278 0.146223C7.88639 0.193098 7.92878 0.248838 7.95749 0.310193C7.98619 0.371547 8.00064 0.437286 7.99998 0.503574C7.99932 0.569862 7.98357 0.635372 7.95365 0.696281C7.92373 0.75719 7.88023 0.812278 7.8257 0.858331L4.40016 3.85375C4.29612 3.94474 4.15592 3.99709 4.0088 3.99988C3.86169 4.00267 3.71902 3.95569 3.61057 3.86873L0.185021 1.12293C0.0734253 1.03342 0.00706256 0.908815 0.00053134 0.776523C-0.00270259 0.711019 0.00884971 0.645599 0.034529 0.583999C0.0602082 0.522398 0.0995115 0.465824 0.150194 0.417506C0.200877 0.369187 0.261948 0.330072 0.329918 0.302392C0.397889 0.274711 0.471429 0.259009 0.54634 0.256181C0.697628 0.25047 0.845315 0.297546 0.956911 0.387052L3.97939 2.80985L7.01842 0.152411Z" fill="#8F9399"/>
</svg>
