<svg width="20" height="20" viewBox="0 0 20 20" fill="none" xmlns="http://www.w3.org/2000/svg">
<g clip-path="url(#clip0_1283_16042)">
<path fill-rule="evenodd" clip-rule="evenodd" d="M14.4107 13.0892C14.4876 13.1688 14.5796 13.2322 14.6812 13.2759C14.7829 13.3196 14.8922 13.3426 15.0029 13.3435C15.1135 13.3445 15.2233 13.3234 15.3257 13.2815C15.4281 13.2396 15.5211 13.1777 15.5994 13.0995C15.6776 13.0212 15.7395 12.9282 15.7814 12.8258C15.8233 12.7234 15.8444 12.6136 15.8434 12.503C15.8425 12.3923 15.8195 12.283 15.7758 12.1813C15.7321 12.0797 15.6687 11.9877 15.5891 11.9108L10.5891 6.91083C10.4372 6.75894 10.2326 6.67156 10.0178 6.6669C9.80311 6.66224 9.59487 6.74067 9.43656 6.88583L4.43656 11.4692C4.27368 11.6186 4.17681 11.8266 4.16728 12.0474C4.16256 12.1567 4.17942 12.2659 4.2169 12.3687C4.25439 12.4716 4.31175 12.566 4.38573 12.6467C4.45971 12.7273 4.54885 12.7926 4.64806 12.8388C4.74727 12.885 4.85461 12.9112 4.96395 12.9159C5.18478 12.9255 5.40034 12.8469 5.56323 12.6975L9.9749 8.65333L14.4107 13.0892Z" fill="#8F9399"/>
</g>
<defs>
<clipPath id="clip0_1283_16042">
<rect width="20" height="20" fill="white" transform="matrix(1 0 0 -1 0 20)"/>
</clipPath>
</defs>
</svg>
