<svg width="16" height="16" viewBox="0 0 16 16" fill="none" xmlns="http://www.w3.org/2000/svg">
<path d="M11.3771 12.6237V10.3771H11.625C11.7618 10.3771 11.8729 10.4882 11.8729 10.625V11.2083C11.8729 11.715 12.285 12.1271 12.7917 12.1271C13.2984 12.1271 13.7104 11.715 13.7104 11.2083V3.04167V3.04166C13.7104 2.95255 13.675 2.86739 13.6121 2.80451L12.4455 1.63784C12.3144 1.50681 12.1022 1.50681 11.9712 1.63784C11.8401 1.76886 11.8401 1.98113 11.9712 2.11214L12.9007 3.04164L11.9712 3.97116C11.9083 4.03403 11.8729 4.1192 11.8729 4.20832V5.08332C11.8729 5.73629 12.3922 6.26986 13.0396 6.29296V11.2083C13.0396 11.3451 12.9284 11.4562 12.7917 11.4562C12.6549 11.4562 12.5437 11.3451 12.5437 11.2083V10.625C12.5437 10.1183 12.1317 9.70623 11.625 9.70623H11.3771V2.16667C11.3771 1.49906 10.8343 0.95625 10.1667 0.95625H4.33335C3.66576 0.95625 3.12292 1.49906 3.12292 2.16667V12.6237C2.47553 12.6468 1.95625 13.1804 1.95625 13.8333V14.7083C1.95625 14.8937 2.10629 15.0437 2.29168 15.0437H12.2083C12.3937 15.0437 12.5438 14.8937 12.5438 14.7083V13.8333C12.5438 13.1804 12.0245 12.6468 11.3771 12.6237ZM3.79377 2.16667C3.79377 1.86927 4.03595 1.6271 4.33335 1.6271H10.1667C10.4641 1.6271 10.7062 1.86927 10.7062 2.16667V12.6229H3.79375L3.79377 2.16667ZM11.8729 13.8333V14.3729H2.6271V13.8333C2.6271 13.5359 2.86927 13.2937 3.16667 13.2937H11.3333C11.6307 13.2937 11.8729 13.5359 11.8729 13.8333ZM13.0396 5.62116C12.7625 5.5988 12.5438 5.36602 12.5438 5.08334V4.34722L13.0396 3.85139V5.62116Z" fill="white" stroke="white" stroke-width="0.0874998"/>
<path d="M9.8751 2.12349H4.62511C4.43973 2.12349 4.28969 2.27353 4.28969 2.45891V5.96432C4.28969 6.1497 4.43973 6.29974 4.62511 6.29974H9.8751C10.0605 6.29974 10.2105 6.1497 10.2105 5.96432V2.45888C10.2105 2.27353 10.0605 2.12349 9.8751 2.12349ZM9.53968 5.62889H4.96051V2.79431H9.53968V5.62889Z" fill="white" stroke="white" stroke-width="0.0874998"/>
</svg>
