<svg width="20" height="20" viewBox="0 0 20 20" fill="none" xmlns="http://www.w3.org/2000/svg">
<path fill-rule="evenodd" clip-rule="evenodd" d="M14.4107 6.91084C14.4876 6.83125 14.5796 6.76776 14.6812 6.72409C14.7829 6.68041 14.8922 6.65743 15.0029 6.65646C15.1135 6.6555 15.2233 6.67659 15.3257 6.71849C15.4281 6.76039 15.5211 6.82227 15.5994 6.90051C15.6776 6.97875 15.7395 7.0718 15.7814 7.17421C15.8233 7.27663 15.8444 7.38636 15.8434 7.49701C15.8425 7.60766 15.8195 7.71701 15.7758 7.81868C15.7321 7.92035 15.6687 8.0123 15.5891 8.08917L10.5891 13.0892C10.4372 13.2411 10.2326 13.3284 10.0178 13.3331C9.80311 13.3378 9.59487 13.2593 9.43656 13.1142L4.43656 8.53084C4.27368 8.38143 4.17681 8.17344 4.16728 7.95262C4.16256 7.84328 4.17942 7.73408 4.2169 7.63125C4.25439 7.52843 4.31175 7.43399 4.38573 7.35334C4.45971 7.27269 4.54885 7.20739 4.64806 7.16119C4.74727 7.11499 4.85461 7.08878 4.96395 7.08406C5.18478 7.07452 5.40034 7.1531 5.56323 7.30251L9.9749 11.3467L14.4107 6.91084Z" fill="#8F9399"/>
</svg>
