<svg width="32" height="32" viewBox="0 0 32 32" fill="none" xmlns="http://www.w3.org/2000/svg">
<circle cx="16" cy="16" r="16" fill="black"/>
<path d="M9.91869 19.7905C10.0296 19.6797 10.182 19.615 10.3437 19.615H25.007C25.275 19.615 25.409 19.9384 25.2196 20.1278L22.3229 23.0244C22.212 23.1353 22.0596 23.2 21.8979 23.2H7.23457C6.96662 23.2 6.83264 22.8766 7.02206 22.6872L9.91869 19.7905Z" fill="url(#paint0_linear_402_1088)"/>
<path d="M9.91869 8.97554C10.0342 8.86467 10.1866 8.79999 10.3437 8.79999H25.007C25.275 8.79999 25.409 9.12338 25.2196 9.31279L22.3229 12.2094C22.212 12.3203 22.0596 12.385 21.8979 12.385H7.23457C6.96662 12.385 6.83264 12.0616 7.02206 11.8722L9.91869 8.97554Z" fill="url(#paint1_linear_402_1088)"/>
<path d="M22.3229 14.3484C22.212 14.2375 22.0596 14.1729 21.8979 14.1729H7.23457C6.96662 14.1729 6.83264 14.4962 7.02206 14.6857L9.91869 17.5823C10.0296 17.6932 10.182 17.7578 10.3437 17.7578H25.007C25.275 17.7578 25.409 17.4344 25.2196 17.245L22.3229 14.3484Z" fill="url(#paint2_linear_402_1088)"/>
<defs>
<linearGradient id="paint0_linear_402_1088" x1="-26.2083" y1="6.07964" x2="-26.5985" y2="25.7114" gradientUnits="userSpaceOnUse">
<stop stop-color="#00FFA3"/>
<stop offset="1" stop-color="#DC1FFF"/>
</linearGradient>
<linearGradient id="paint1_linear_402_1088" x1="-30.6457" y1="3.76299" x2="-31.0358" y2="23.3948" gradientUnits="userSpaceOnUse">
<stop stop-color="#00FFA3"/>
<stop offset="1" stop-color="#DC1FFF"/>
</linearGradient>
<linearGradient id="paint2_linear_402_1088" x1="-28.4411" y1="4.91395" x2="-28.8313" y2="24.5457" gradientUnits="userSpaceOnUse">
<stop stop-color="#00FFA3"/>
<stop offset="1" stop-color="#DC1FFF"/>
</linearGradient>
</defs>
</svg>
