<svg width="8" height="4" viewBox="0 0 8 4" fill="none" xmlns="http://www.w3.org/2000/svg">
<path fill-rule="evenodd" clip-rule="evenodd" d="M7.01842 3.84759C7.07108 3.89527 7.13408 3.9333 7.20374 3.95947C7.27339 3.98563 7.34831 3.99941 7.42411 3.99998C7.49992 4.00056 7.5751 3.98793 7.64526 3.96282C7.71543 3.93772 7.77917 3.90065 7.83278 3.85378C7.88639 3.8069 7.92878 3.75116 7.95749 3.68981C7.98619 3.62845 8.00064 3.56271 7.99998 3.49643C7.99932 3.43014 7.98357 3.36463 7.95365 3.30372C7.92373 3.24281 7.88023 3.18772 7.8257 3.14167L4.40016 0.146251C4.29612 0.0552596 4.15592 0.00290812 4.0088 0.000117646C3.86169 -0.00267283 3.71902 0.0443129 3.61057 0.131274L0.185021 2.87707C0.0734253 2.96658 0.00706256 3.09118 0.00053134 3.22348C-0.00270259 3.28898 0.00884971 3.3544 0.034529 3.416C0.0602082 3.4776 0.0995115 3.53418 0.150194 3.58249C0.200877 3.63081 0.261948 3.66993 0.329918 3.69761C0.397889 3.72529 0.471429 3.74099 0.54634 3.74382C0.697628 3.74953 0.845315 3.70245 0.956911 3.61295L3.97939 1.19015L7.01842 3.84759Z" fill="#8F9399"/>
</svg>
